<svg viewBox="0 0 419 88" fill="none" xmlns="http://www.w3.org/2000/svg">
<path d="M23.68 68.88C16.48 68.88 10.8 67.36 6.64002 64.32C2.53336 61.28 0.320022 57.04 2.19345e-05 51.6H14.16C14.5867 53.7334 15.6 55.3067 17.2 56.32C18.8534 57.3334 21.2267 57.84 24.32 57.84C29.12 57.84 31.52 56.5867 31.52 54.08C31.52 53.0667 31.1467 52.2667 30.4 51.68C29.7067 51.04 28.5334 50.56 26.88 50.24L16.16 48.16C6.34669 46.24 1.44002 41.6534 1.44002 34.4C1.44002 29.7067 3.33336 25.9734 7.12002 23.2C10.9067 20.3734 16.1334 18.96 22.8 18.96C29.4667 18.96 34.72 20.4 38.56 23.28C42.4 26.16 44.48 30.2134 44.8 35.44H30.64C30.1067 33.36 29.1467 31.8667 27.76 30.96C26.4267 30 24.4534 29.52 21.84 29.52C19.7067 29.52 18.0534 29.8134 16.88 30.4C15.76 30.9867 15.2 31.8667 15.2 33.04C15.2 33.8934 15.5467 34.6134 16.24 35.2C16.9334 35.7867 17.9734 36.2134 19.36 36.48L30.4 38.64C35.52 39.6534 39.28 41.3067 41.68 43.6C44.08 45.8934 45.28 48.9867 45.28 52.88C45.28 57.8934 43.4134 61.8134 39.68 64.64C36 67.4667 30.6667 68.88 23.68 68.88ZM52.4375 67.92V19.92H67.1575V67.92H52.4375ZM59.7975 15.84C57.6109 15.84 55.7442 15.0667 54.1975 13.52C52.6509 11.9734 51.8775 10.1067 51.8775 7.92004C51.8775 5.73338 52.6509 3.86671 54.1975 2.32004C55.7442 0.773375 57.6109 4.00543e-05 59.7975 4.00543e-05C61.9842 4.00543e-05 63.8509 0.773375 65.3975 2.32004C66.9442 3.86671 67.7175 5.73338 67.7175 7.92004C67.7175 10.1067 66.9442 11.9734 65.3975 13.52C63.8509 15.0667 61.9842 15.84 59.7975 15.84ZM93.4413 67.92C89.7079 67.92 86.8013 66.9867 84.7213 65.12C82.6946 63.2 81.6813 60.2934 81.6813 56.4V31.44H73.6813V19.92H81.8413V5.52004H96.2413V19.92H106.801V31.44H96.4013V56.4H107.921V67.92H93.4413ZM137.995 68.88C132.715 68.88 128.128 67.8667 124.235 65.84C120.342 63.76 117.328 60.8534 115.195 57.12C113.115 53.3334 112.075 48.88 112.075 43.76C112.075 38.64 113.088 34.24 115.115 30.56C117.195 26.8267 120.128 23.9734 123.915 22C127.755 19.9734 132.262 18.96 137.435 18.96C142.555 18.96 146.955 19.9467 150.635 21.92C154.315 23.84 157.115 26.6134 159.035 30.24C161.008 33.8667 161.995 38.2134 161.995 43.28V48H126.235C126.822 51.0934 128.102 53.44 130.075 55.04C132.048 56.5867 134.662 57.36 137.915 57.36C140.528 57.36 142.555 56.96 143.995 56.16C145.488 55.3067 146.555 53.9734 147.195 52.16H161.915C160.902 57.3867 158.288 61.4934 154.075 64.48C149.862 67.4134 144.502 68.88 137.995 68.88ZM126.475 38.4H147.915C147.435 35.7334 146.315 33.76 144.555 32.48C142.848 31.1467 140.502 30.48 137.515 30.48C134.582 30.48 132.182 31.1467 130.315 32.48C128.448 33.8134 127.168 35.7867 126.475 38.4Z" fill="black"/>
<path d="M173.01 87.12V34.32H165.81V19.92H180.53V27.92H183.89C185.597 25.0934 187.89 22.9067 190.77 21.36C193.703 19.76 197.197 18.96 201.25 18.96C206.317 18.96 210.557 20.0267 213.97 22.16C217.383 24.24 219.97 27.1467 221.73 30.88C223.49 34.6134 224.37 38.96 224.37 43.92C224.37 48.88 223.517 53.2534 221.81 57.04C220.103 60.7734 217.623 63.68 214.37 65.76C211.117 67.84 207.17 68.88 202.53 68.88C199.117 68.88 196.183 68.2667 193.73 67.04C191.33 65.76 189.437 64 188.05 61.76H187.73V87.12H173.01ZM198.45 56.08C202.237 56.08 205.037 54.9867 206.85 52.8C208.717 50.6134 209.65 47.6534 209.65 43.92C209.65 40.1867 208.717 37.2267 206.85 35.04C205.037 32.8534 202.237 31.76 198.45 31.76C195.143 31.76 192.53 32.6934 190.61 34.56C188.69 36.3734 187.73 38.9067 187.73 42.16V45.68C187.73 48.9334 188.69 51.4934 190.61 53.36C192.53 55.1734 195.143 56.08 198.45 56.08ZM252.168 68.8C245.288 68.8 240.061 67.04 236.488 63.52C232.914 59.9467 231.128 55.0934 231.128 48.96V19.92H245.848V46.08C245.848 49.3334 246.648 51.76 248.248 53.36C249.901 54.9067 252.381 55.68 255.688 55.68C259.154 55.68 261.794 54.8267 263.608 53.12C265.421 51.36 266.328 48.8534 266.328 45.6V19.92H281.048V53.52H288.248V67.92H273.528V59.92H270.168C268.194 62.8 265.848 65.0134 263.128 66.56C260.408 68.0534 256.754 68.8 252.168 68.8ZM295.719 67.92V0.720045H310.439V67.92H295.719ZM342.243 68.88C335.043 68.88 329.363 67.36 325.203 64.32C321.096 61.28 318.883 57.04 318.563 51.6H332.723C333.149 53.7334 334.163 55.3067 335.763 56.32C337.416 57.3334 339.789 57.84 342.883 57.84C347.683 57.84 350.083 56.5867 350.083 54.08C350.083 53.0667 349.709 52.2667 348.963 51.68C348.269 51.04 347.096 50.56 345.443 50.24L334.723 48.16C324.909 46.24 320.003 41.6534 320.003 34.4C320.003 29.7067 321.896 25.9734 325.683 23.2C329.469 20.3734 334.696 18.96 341.363 18.96C348.029 18.96 353.283 20.4 357.123 23.28C360.963 26.16 363.043 30.2134 363.363 35.44H349.203C348.669 33.36 347.709 31.8667 346.323 30.96C344.989 30 343.016 29.52 340.403 29.52C338.269 29.52 336.616 29.8134 335.443 30.4C334.323 30.9867 333.763 31.8667 333.763 33.04C333.763 33.8934 334.109 34.6134 334.803 35.2C335.496 35.7867 336.536 36.2134 337.923 36.48L348.963 38.64C354.083 39.6534 357.843 41.3067 360.243 43.6C362.643 45.8934 363.843 48.9867 363.843 52.88C363.843 57.8934 361.976 61.8134 358.243 64.64C354.563 67.4667 349.229 68.88 342.243 68.88ZM394.12 68.88C388.84 68.88 384.253 67.8667 380.36 65.84C376.467 63.76 373.453 60.8534 371.32 57.12C369.24 53.3334 368.2 48.88 368.2 43.76C368.2 38.64 369.213 34.24 371.24 30.56C373.32 26.8267 376.253 23.9734 380.04 22C383.88 19.9734 388.387 18.96 393.56 18.96C398.68 18.96 403.08 19.9467 406.76 21.92C410.44 23.84 413.24 26.6134 415.16 30.24C417.133 33.8667 418.12 38.2134 418.12 43.28V48H382.36C382.947 51.0934 384.227 53.44 386.2 55.04C388.173 56.5867 390.787 57.36 394.04 57.36C396.653 57.36 398.68 56.96 400.12 56.16C401.613 55.3067 402.68 53.9734 403.32 52.16H418.04C417.027 57.3867 414.413 61.4934 410.2 64.48C405.987 67.4134 400.627 68.88 394.12 68.88ZM382.6 38.4H404.04C403.56 35.7334 402.44 33.76 400.68 32.48C398.973 31.1467 396.627 30.48 393.64 30.48C390.707 30.48 388.307 31.1467 386.44 32.48C384.573 33.8134 383.293 35.7867 382.6 38.4Z" fill="#7F22FE"/>
</svg>
