<svg viewBox="0 0 495 98" fill="none" xmlns="http://www.w3.org/2000/svg">
    <path fill-rule="evenodd" clip-rule="evenodd" d="M58.7143 72.7143C60.9184 70.5112 64.4919 70.5112 66.6959 72.7143L81.7454 87.7639C83.9486 89.9679 83.9486 93.5414 81.7454 95.7454C79.5414 97.9486 75.9679 97.9486 73.7639 95.7454L58.7143 80.6959C56.5112 78.4919 56.5112 74.9184 58.7143 72.7143Z" fill="var(--color-primary)"/>
    <path d="M60.8407 44.9204C60.8407 60.3403 48.3403 72.8407 32.9204 72.8407C17.5004 72.8407 5 60.3403 5 44.9204C5 29.5004 17.5004 17 32.9204 17C48.3403 17 60.8407 29.5004 60.8407 44.9204Z" fill="var(--color-primary)" fill-opacity="0.5" stroke="var(--color-primary)" stroke-width="10" stroke-linecap="round"/>
    <path
        d="M121.796 83.066C112.694 83.066 104.822 79.458 99.82 70.684L109.742 64.37C112.694 70.274 117.45 72.816 122.452 72.816C127.782 72.816 131.062 70.192 131.062 66.256C131.062 60.516 124.994 58.712 117.942 56.908C109.086 54.612 103.428 49.446 103.428 40.754C103.428 30.422 111.546 23.616 123.682 23.616C132.62 23.616 138.36 27.552 142.624 34.276L132.784 40.344C129.996 35.916 127.372 33.866 123.108 33.866C118.516 33.866 115.154 36.326 115.154 40.18C115.154 44.444 119.254 45.838 124.256 47.396C130.98 49.528 142.788 52.48 142.788 65.6C142.788 76.014 134.834 83.066 121.796 83.066ZM150.304 82V24.6H183.924V34.932H161.784V47.806H183.514V57.81H161.784V71.668H184.088V82H150.304ZM220.104 83.066C203.048 83.066 190.174 69.782 190.174 53.382C190.174 36.9 203.048 23.534 220.104 23.534C237.078 23.534 249.87 36.9 249.87 53.382C249.87 69.782 237.078 83.066 220.104 83.066ZM202.064 53.382C202.064 63.796 208.952 72.406 220.104 72.406C231.174 72.406 237.98 63.796 237.98 53.382C237.98 42.968 231.174 34.194 220.104 34.194C208.952 34.194 202.064 42.968 202.064 53.382Z"
        fill="var(--color-primary)"/>
    <path
        d="M273.02 82C264.574 82 259.982 78.064 259.982 68.798V48.79H253.996V39.36H259.982V30.75L271.052 29.602V39.36H280.072V48.79H271.052V68.224C271.052 70.93 272.364 72.16 274.496 72.16H279.088V82H273.02ZM305.365 83.066C292.163 83.066 282.651 73.062 282.651 60.762C282.651 48.462 292.163 38.376 305.365 38.376C318.567 38.376 328.079 48.462 328.079 60.762C328.079 73.062 318.567 83.066 305.365 83.066ZM293.721 60.762C293.721 67.404 298.313 72.98 305.365 72.98C312.417 72.98 317.009 67.404 317.009 60.762C317.009 54.12 312.417 48.462 305.365 48.462C298.313 48.462 293.721 54.12 293.721 60.762ZM355.292 83.066C342.09 83.066 332.578 73.062 332.578 60.762C332.578 48.462 342.09 38.376 355.292 38.376C368.494 38.376 378.006 48.462 378.006 60.762C378.006 73.062 368.494 83.066 355.292 83.066ZM343.648 60.762C343.648 67.404 348.24 72.98 355.292 72.98C362.344 72.98 366.936 67.404 366.936 60.762C366.936 54.12 362.344 48.462 355.292 48.462C348.24 48.462 343.648 54.12 343.648 60.762ZM384.546 82V22.14H395.616V82H384.546ZM432.011 82L414.873 61.746V82H403.803V22.14H414.873V56.58L430.863 39.36H446.607L426.517 59.204L446.689 82H432.011ZM451.168 82V39.36H462.238V82H451.168ZM450.02 29.274C450.02 25.748 452.89 22.796 456.662 22.796C460.516 22.796 463.304 25.748 463.304 29.274C463.304 32.964 460.516 35.834 456.662 35.834C452.89 35.834 450.02 32.882 450.02 29.274ZM486.579 82C478.133 82 473.541 78.064 473.541 68.798V48.79H467.555V39.36H473.541V30.75L484.611 29.602V39.36H493.631V48.79H484.611V68.224C484.611 70.93 485.923 72.16 488.055 72.16H492.647V82H486.579Z"
        fill="var(--color-secondary)"/>
</svg>
